<svg xmlns="http://www.w3.org/2000/svg" version="1.1" xmlns:xlink="http://www.w3.org/1999/xlink" xmlns:svgjs="http://svgjs.dev/svgjs" width="1000" height="1000" viewBox="0 0 1000 1000"><rect width="1000" height="1000" fill="transparent"></rect><g transform="matrix(0.7,0,0,0.7,150.0491029381161,141.89020242914978)"><svg viewBox="0 0 241 247" data-background-color="#ffffff" preserveAspectRatio="xMidYMid meet" height="1024" width="1000" xmlns="http://www.w3.org/2000/svg" xmlns:xlink="http://www.w3.org/1999/xlink"><g id="tight-bounds" transform="matrix(1,0,0,1,-0.016904785961116886,-0.0999999999999801)"><svg viewBox="0 0 241.0338093850189 247.19999999999996" height="247.19999999999996" width="241.0338093850189"><g><svg viewBox="0 0 241.0338093850189 247.19999999999996" height="247.19999999999996" width="241.0338093850189"><g><svg viewBox="0 0 241.0338093850189 247.19999999999996" height="247.19999999999996" width="241.0338093850189"><g id="textblocktransform"><svg viewBox="0 0 241.0338093850189 247.19999999999996" height="247.19999999999996" width="241.0338093850189" id="textblock"><g><svg viewBox="0 0 241.0338093850189 247.19999999999996" height="247.19999999999996" width="241.0338093850189"><g transform="matrix(1,0,0,1,0,0)"><svg width="241.0338093850189" viewBox="0.4400005340576172 -35.400001525878906 196.77999877929688 197.94000244140625" height="247.19999999999996" data-palette-color="#edbbba"><svg></svg><svg></svg><svg></svg><svg></svg><svg></svg><g class="wordmark-text-0" data-fill-palette-color="primary" id="text-0"><path xmlns="http://www.w3.org/2000/svg" d="M31.1-17.36v13.82c-1.627 1.387-3.44 2.45-5.44 3.19-2 0.74-4.083 1.11-6.25 1.11v0c-1.66 0-3.26-0.217-4.8-0.65-1.54-0.433-2.977-1.043-4.31-1.83-1.333-0.793-2.553-1.737-3.66-2.83-1.107-1.1-2.05-2.323-2.83-3.67-0.78-1.34-1.387-2.783-1.82-4.33-0.433-1.547-0.65-3.15-0.65-4.81v0c0-1.66 0.217-3.253 0.65-4.78 0.433-1.533 1.04-2.97 1.82-4.31 0.78-1.347 1.723-2.567 2.83-3.66 1.107-1.1 2.327-2.04 3.66-2.82 1.333-0.787 2.77-1.393 4.31-1.82 1.54-0.433 3.14-0.65 4.8-0.65v0c2.167 0 4.25 0.37 6.25 1.11 2 0.74 3.813 1.803 5.44 3.19v0l-3.66 6.1c-1.06-1.073-2.28-1.917-3.66-2.53-1.387-0.607-2.843-0.91-4.37-0.91v0c-1.533 0-2.97 0.293-4.31 0.88-1.34 0.587-2.517 1.38-3.53 2.38-1.007 1-1.803 2.17-2.39 3.51-0.587 1.347-0.88 2.783-0.88 4.31v0c0 1.547 0.293 2.997 0.88 4.35 0.587 1.347 1.383 2.527 2.39 3.54 1.013 1.007 2.19 1.803 3.53 2.39 1.34 0.587 2.777 0.88 4.31 0.88v0c0.88 0 1.733-0.107 2.56-0.32 0.833-0.213 1.623-0.507 2.37-0.88v0-9.96zM64.11-35.01v21.02c0 1.94-0.367 3.76-1.1 5.46-0.733 1.7-1.733 3.18-3 4.44-1.267 1.26-2.753 2.257-4.46 2.99-1.7 0.733-3.517 1.1-5.45 1.1v0c-1.94 0-3.76-0.367-5.46-1.1-1.7-0.733-3.18-1.73-4.44-2.99-1.26-1.26-2.257-2.74-2.99-4.44-0.733-1.7-1.1-3.52-1.1-5.46v0-21.02h6.98v21.02c0 0.96 0.183 1.863 0.55 2.71 0.367 0.847 0.867 1.587 1.5 2.22 0.633 0.633 1.38 1.133 2.24 1.5 0.853 0.367 1.76 0.55 2.72 0.55v0c0.96 0 1.867-0.183 2.72-0.55 0.853-0.367 1.597-0.867 2.23-1.5 0.64-0.633 1.143-1.373 1.51-2.22 0.36-0.847 0.54-1.75 0.54-2.71v0-21.02zM94.19-7.01v7.01h-24v-35.01h24v7.01h-16.99v7h11.5v7.01h-11.5v6.98zM96.66-24.51v0c0-1.447 0.277-2.807 0.83-4.08 0.553-1.267 1.303-2.377 2.25-3.33 0.953-0.953 2.067-1.707 3.34-2.26 1.267-0.553 2.623-0.83 4.07-0.83v0h16.07v7.01h-16.07c-0.487 0-0.94 0.09-1.36 0.27-0.427 0.173-0.797 0.42-1.11 0.74-0.32 0.32-0.57 0.69-0.75 1.11-0.18 0.427-0.27 0.883-0.27 1.37v0c0 0.487 0.09 0.947 0.27 1.38 0.18 0.427 0.43 0.8 0.75 1.12 0.313 0.32 0.683 0.57 1.11 0.75 0.42 0.173 0.873 0.26 1.36 0.26v0h7.01c1.447 0 2.81 0.273 4.09 0.82 1.28 0.547 2.393 1.297 3.34 2.25 0.953 0.953 1.703 2.067 2.25 3.34 0.547 1.28 0.82 2.643 0.82 4.09v0c0 1.447-0.273 2.807-0.82 4.08-0.547 1.267-1.297 2.377-2.25 3.33-0.947 0.953-2.06 1.707-3.34 2.26-1.28 0.553-2.643 0.83-4.09 0.83v0h-15.55v-7.01h15.55c0.487 0 0.943-0.09 1.37-0.27 0.42-0.173 0.79-0.42 1.11-0.74 0.313-0.32 0.56-0.69 0.74-1.11 0.18-0.427 0.27-0.883 0.27-1.37v0c0-0.487-0.09-0.943-0.27-1.37-0.18-0.42-0.427-0.79-0.74-1.11-0.32-0.313-0.69-0.56-1.11-0.74-0.427-0.18-0.883-0.27-1.37-0.27v0h-7.01c-1.447 0-2.803-0.277-4.07-0.83-1.273-0.553-2.387-1.307-3.34-2.26-0.947-0.953-1.697-2.067-2.25-3.34-0.553-1.28-0.83-2.643-0.83-4.09zM127.2-24.51v0c0-1.447 0.277-2.807 0.83-4.08 0.553-1.267 1.307-2.377 2.26-3.33 0.947-0.953 2.057-1.707 3.33-2.26 1.267-0.553 2.627-0.83 4.08-0.83v0h16.06v7.01h-16.06c-0.493 0-0.95 0.09-1.37 0.27-0.427 0.173-0.797 0.42-1.11 0.74-0.32 0.32-0.57 0.69-0.75 1.11-0.18 0.427-0.27 0.883-0.27 1.37v0c0 0.487 0.09 0.947 0.27 1.38 0.18 0.427 0.43 0.8 0.75 1.12 0.313 0.32 0.683 0.57 1.11 0.75 0.42 0.173 0.877 0.26 1.37 0.26v0h7c1.453 0 2.817 0.273 4.09 0.82 1.28 0.547 2.397 1.297 3.35 2.25 0.947 0.953 1.693 2.067 2.24 3.34 0.547 1.28 0.82 2.643 0.82 4.09v0c0 1.447-0.273 2.807-0.82 4.08-0.547 1.267-1.293 2.377-2.24 3.33-0.953 0.953-2.07 1.707-3.35 2.26-1.273 0.553-2.637 0.83-4.09 0.83v0h-15.55v-7.01h15.55c0.487 0 0.943-0.09 1.37-0.27 0.42-0.173 0.79-0.42 1.11-0.74 0.32-0.32 0.567-0.69 0.74-1.11 0.18-0.427 0.27-0.883 0.27-1.37v0c0-0.487-0.09-0.943-0.27-1.37-0.173-0.42-0.42-0.79-0.74-1.11-0.32-0.313-0.69-0.56-1.11-0.74-0.427-0.18-0.883-0.27-1.37-0.27v0h-7c-1.453 0-2.813-0.277-4.08-0.83-1.273-0.553-2.383-1.307-3.33-2.26-0.953-0.953-1.707-2.067-2.26-3.34-0.553-1.28-0.83-2.643-0.83-4.09z" fill="#edbbba" fill-rule="nonzero" stroke="none" stroke-width="1" stroke-linecap="butt" stroke-linejoin="miter" stroke-miterlimit="10" stroke-dasharray="" stroke-dashoffset="0" font-family="none" font-weight="none" font-size="none" text-anchor="none" style="mix-blend-mode: normal" data-fill-palette-color="primary" opacity="1"></path><path xmlns="http://www.w3.org/2000/svg" d="M17.94 12.21v28h-6.98v-28h-10.52v-7.01h28v7.01zM39.16 26.22v13.99h-7.01v-35.01h7.01v14.01h13.99v-14.01h7.01v35.01h-7.01v-13.99zM90.65 33.2v7.01h-24v-35.01h24v7.01h-16.99v7h11.5v7.01h-11.5v6.98z" fill="#e363aa" fill-rule="nonzero" stroke="none" stroke-width="1" stroke-linecap="butt" stroke-linejoin="miter" stroke-miterlimit="10" stroke-dasharray="" stroke-dashoffset="0" font-family="none" font-weight="none" font-size="none" text-anchor="none" style="mix-blend-mode: normal" data-fill-palette-color="secondary" opacity="1"></path><path xmlns="http://www.w3.org/2000/svg" d="M17.26 52.41h-7.01v14.01h7.01c0.96 0 1.863-0.183 2.71-0.55 0.847-0.367 1.587-0.867 2.22-1.5 0.633-0.633 1.133-1.377 1.5-2.23 0.367-0.86 0.55-1.77 0.55-2.73v0c0-0.96-0.183-1.867-0.55-2.72-0.367-0.853-0.867-1.597-1.5-2.23-0.633-0.633-1.373-1.133-2.22-1.5-0.847-0.367-1.75-0.55-2.71-0.55zM10.25 73.4v7.01h-7v-35.01h14.01c1.287 0 2.523 0.167 3.71 0.5 1.187 0.333 2.297 0.807 3.33 1.42 1.033 0.607 1.98 1.337 2.84 2.19 0.853 0.86 1.583 1.81 2.19 2.85 0.613 1.04 1.087 2.153 1.42 3.34 0.333 1.193 0.5 2.43 0.5 3.71v0c0 1.92-0.367 3.733-1.1 5.44-0.733 1.7-1.733 3.183-3 4.45-1.273 1.273-2.76 2.273-4.46 3-1.7 0.733-3.51 1.1-5.43 1.1v0zM59.86 73.4v7.01h-24.51v-35.01h7.01v28zM70.09 66.42h14.02v-7.01c0-0.96-0.183-1.867-0.55-2.72-0.367-0.853-0.867-1.597-1.5-2.23-0.64-0.633-1.387-1.133-2.24-1.5-0.853-0.367-1.76-0.55-2.72-0.55v0c-0.96 0-1.867 0.183-2.72 0.55-0.853 0.367-1.6 0.867-2.24 1.5-0.633 0.633-1.133 1.377-1.5 2.23-0.367 0.853-0.55 1.76-0.55 2.72v0zM91.11 59.41v21h-7v-7.01h-14.02v7.01h-6.98v-21c0-1.933 0.367-3.75 1.1-5.45 0.733-1.7 1.73-3.187 2.99-4.46 1.26-1.267 2.74-2.267 4.44-3 1.7-0.733 3.52-1.1 5.46-1.1v0c1.933 0 3.753 0.367 5.46 1.1 1.7 0.733 3.183 1.733 4.45 3 1.273 1.273 2.273 2.76 3 4.46 0.733 1.7 1.1 3.517 1.1 5.45zM121.44 70.72l3.71 6.1c-1.627 1.4-3.45 2.473-5.47 3.22-2.02 0.753-4.113 1.13-6.28 1.13v0c-1.66 0-3.257-0.217-4.79-0.65-1.54-0.433-2.983-1.043-4.33-1.83-1.34-0.793-2.563-1.743-3.67-2.85-1.107-1.107-2.053-2.33-2.84-3.67-0.793-1.34-1.403-2.78-1.83-4.32-0.433-1.54-0.65-3.14-0.65-4.8v0c0-1.66 0.217-3.263 0.65-4.81 0.427-1.547 1.037-2.99 1.83-4.33 0.787-1.347 1.733-2.573 2.84-3.68 1.107-1.107 2.33-2.053 3.67-2.84 1.347-0.787 2.79-1.397 4.33-1.83 1.533-0.433 3.13-0.65 4.79-0.65v0c2.167 0 4.26 0.37 6.28 1.11 2.02 0.74 3.843 1.82 5.47 3.24v0l-3.71 6.1c-1.027-1.107-2.24-1.957-3.64-2.55-1.4-0.593-2.867-0.89-4.4-0.89v0c-1.547 0-2.993 0.293-4.34 0.88-1.353 0.587-2.533 1.38-3.54 2.38-1.013 1-1.81 2.18-2.39 3.54-0.587 1.36-0.88 2.803-0.88 4.33v0c0 1.533 0.293 2.97 0.88 4.31 0.58 1.34 1.377 2.517 2.39 3.53 1.007 1.007 2.187 1.803 3.54 2.39 1.347 0.587 2.793 0.88 4.34 0.88v0c1.533 0 3-0.297 4.4-0.89 1.4-0.593 2.613-1.443 3.64-2.55zM153.2 73.4v7.01h-24v-35.01h24v7.01h-16.99v7h11.5v7.01h-11.5v6.98z" fill="#edbbba" fill-rule="nonzero" stroke="none" stroke-width="1" stroke-linecap="butt" stroke-linejoin="miter" stroke-miterlimit="10" stroke-dasharray="" stroke-dashoffset="0" font-family="none" font-weight="none" font-size="none" text-anchor="none" style="mix-blend-mode: normal" data-fill-palette-color="primary" opacity="1"></path><path xmlns="http://www.w3.org/2000/svg" d="M37.55 103.26v0c0 1.66-0.217 3.26-0.65 4.8-0.433 1.54-1.04 2.98-1.82 4.32-0.78 1.34-1.723 2.563-2.83 3.67-1.107 1.107-2.327 2.057-3.66 2.85-1.333 0.787-2.773 1.397-4.32 1.83-1.547 0.433-3.15 0.65-4.81 0.65v0c-1.66 0-3.26-0.217-4.8-0.65-1.54-0.433-2.98-1.043-4.32-1.83-1.34-0.793-2.563-1.743-3.67-2.85-1.113-1.107-2.063-2.33-2.85-3.67-0.787-1.34-1.397-2.78-1.83-4.32-0.433-1.54-0.65-3.14-0.65-4.8v0c0-1.66 0.217-3.263 0.65-4.81 0.433-1.547 1.043-2.987 1.83-4.32 0.787-1.333 1.737-2.553 2.85-3.66 1.107-1.107 2.33-2.05 3.67-2.83 1.34-0.787 2.78-1.393 4.32-1.82 1.54-0.433 3.14-0.65 4.8-0.65v0c1.66 0 3.263 0.217 4.81 0.65 1.547 0.427 2.987 1.033 4.32 1.82 1.333 0.78 2.553 1.723 3.66 2.83 1.107 1.107 2.05 2.327 2.83 3.66 0.78 1.333 1.387 2.773 1.82 4.32 0.433 1.547 0.65 3.15 0.65 4.81zM30.59 103.26v0c0-1.527-0.293-2.97-0.88-4.33-0.587-1.36-1.38-2.54-2.38-3.54-1-1-2.18-1.793-3.54-2.38-1.36-0.587-2.803-0.88-4.33-0.88v0c-1.547 0-2.997 0.293-4.35 0.88-1.347 0.587-2.527 1.38-3.54 2.38-1.007 1-1.803 2.18-2.39 3.54-0.587 1.36-0.88 2.803-0.88 4.33v0c0 1.533 0.293 2.97 0.88 4.31 0.587 1.34 1.383 2.517 2.39 3.53 1.013 1.007 2.193 1.803 3.54 2.39 1.353 0.587 2.803 0.88 4.35 0.88v0c1.527 0 2.97-0.293 4.33-0.88 1.36-0.587 2.54-1.383 3.54-2.39 1-1.013 1.793-2.19 2.38-3.53 0.587-1.34 0.88-2.777 0.88-4.31zM49.15 106.63v13.99h-7.01v-35.01h24.51v7.01h-17.5v7h10.49v7.01z" fill="#e363aa" fill-rule="nonzero" stroke="none" stroke-width="1" stroke-linecap="butt" stroke-linejoin="miter" stroke-miterlimit="10" stroke-dasharray="" stroke-dashoffset="0" font-family="none" font-weight="none" font-size="none" text-anchor="none" style="mix-blend-mode: normal" data-fill-palette-color="secondary" opacity="1"></path><path xmlns="http://www.w3.org/2000/svg" d="M1.2 136.32v0c0-1.447 0.277-2.807 0.83-4.08 0.553-1.267 1.303-2.377 2.25-3.33 0.953-0.953 2.067-1.707 3.34-2.26 1.267-0.553 2.623-0.83 4.07-0.83v0h16.07v7.01h-16.07c-0.487 0-0.94 0.09-1.36 0.27-0.427 0.173-0.797 0.42-1.11 0.74-0.32 0.32-0.57 0.69-0.75 1.11-0.18 0.427-0.27 0.883-0.27 1.37v0c0 0.487 0.09 0.947 0.27 1.38 0.18 0.427 0.43 0.8 0.75 1.12 0.313 0.32 0.683 0.57 1.11 0.75 0.42 0.173 0.873 0.26 1.36 0.26v0h7.01c1.447 0 2.81 0.273 4.09 0.82 1.28 0.547 2.397 1.297 3.35 2.25 0.947 0.953 1.693 2.067 2.24 3.34 0.547 1.28 0.82 2.643 0.82 4.09v0c0 1.447-0.273 2.807-0.82 4.08-0.547 1.267-1.293 2.377-2.24 3.33-0.953 0.953-2.07 1.707-3.35 2.26-1.28 0.553-2.643 0.83-4.09 0.83v0h-15.55v-7.01h15.55c0.487 0 0.943-0.09 1.37-0.27 0.42-0.173 0.79-0.42 1.11-0.74 0.32-0.32 0.567-0.69 0.74-1.11 0.18-0.427 0.27-0.883 0.27-1.37v0c0-0.487-0.09-0.943-0.27-1.37-0.173-0.42-0.42-0.79-0.74-1.11-0.32-0.313-0.69-0.56-1.11-0.74-0.427-0.18-0.883-0.27-1.37-0.27v0h-7.01c-1.447 0-2.803-0.277-4.07-0.83-1.273-0.553-2.387-1.307-3.34-2.26-0.947-0.953-1.697-2.067-2.25-3.34-0.553-1.28-0.83-2.643-0.83-4.09zM47.8 132.83h-7v14.01h7c0.96 0 1.863-0.183 2.71-0.55 0.847-0.367 1.587-0.867 2.22-1.5 0.64-0.633 1.143-1.377 1.51-2.23 0.367-0.86 0.55-1.77 0.55-2.73v0c0-0.96-0.183-1.867-0.55-2.72-0.367-0.853-0.87-1.597-1.51-2.23-0.633-0.633-1.373-1.133-2.22-1.5-0.847-0.367-1.75-0.55-2.71-0.55zM40.8 153.82v7.01h-7.01v-35.01h14.01c1.287 0 2.523 0.167 3.71 0.5 1.193 0.333 2.307 0.807 3.34 1.42 1.033 0.607 1.977 1.337 2.83 2.19 0.853 0.86 1.587 1.81 2.2 2.85 0.607 1.04 1.077 2.153 1.41 3.34 0.333 1.193 0.5 2.43 0.5 3.71v0c0 1.92-0.367 3.733-1.1 5.44-0.733 1.7-1.733 3.183-3 4.45-1.267 1.273-2.753 2.273-4.46 3-1.7 0.733-3.51 1.1-5.43 1.1v0zM89.89 153.82v7.01h-24v-35.01h24v7.01h-16.99v7h11.5v7.01h-11.5v6.98zM118.8 153.82v7.01h-24v-35.01h24v7.01h-16.99v7h11.5v7.01h-11.5v6.98zM147.09 151.14l3.72 6.1c-1.633 1.4-3.457 2.473-5.47 3.22-2.02 0.753-4.113 1.13-6.28 1.13v0c-1.66 0-3.257-0.217-4.79-0.65-1.54-0.433-2.983-1.043-4.33-1.83-1.34-0.793-2.563-1.743-3.67-2.85-1.107-1.107-2.053-2.33-2.84-3.67-0.793-1.34-1.407-2.78-1.84-4.32-0.427-1.54-0.64-3.14-0.64-4.8v0c0-1.66 0.213-3.263 0.64-4.81 0.433-1.547 1.047-2.99 1.84-4.33 0.787-1.347 1.733-2.573 2.84-3.68 1.107-1.107 2.33-2.053 3.67-2.84 1.347-0.787 2.79-1.397 4.33-1.83 1.533-0.433 3.13-0.65 4.79-0.65v0c2.167 0 4.26 0.37 6.28 1.11 2.013 0.74 3.837 1.82 5.47 3.24v0l-3.72 6.1c-1.02-1.107-2.23-1.957-3.63-2.55-1.4-0.593-2.867-0.89-4.4-0.89v0c-1.547 0-2.993 0.293-4.34 0.88-1.353 0.587-2.533 1.38-3.54 2.38-1.013 1-1.813 2.18-2.4 3.54-0.58 1.36-0.87 2.803-0.87 4.33v0c0 1.533 0.29 2.97 0.87 4.31 0.587 1.34 1.387 2.517 2.4 3.53 1.007 1.007 2.187 1.803 3.54 2.39 1.347 0.587 2.793 0.88 4.34 0.88v0c1.533 0 3-0.297 4.4-0.89 1.4-0.593 2.61-1.443 3.63-2.55zM161.87 146.84v13.99h-7.01v-35.01h7.01v14.01h13.98v-14.01h7.01v35.01h-7.01v-13.99zM197.22 125.82l-1.52 26.37h-5.44l-1.49-26.37zM197.17 158.34v0c0 0.587-0.11 1.137-0.33 1.65-0.22 0.513-0.517 0.957-0.89 1.33-0.373 0.373-0.813 0.67-1.32 0.89-0.507 0.22-1.043 0.33-1.61 0.33v0c-0.587 0-1.133-0.11-1.64-0.33-0.5-0.22-0.943-0.517-1.33-0.89-0.38-0.373-0.68-0.817-0.9-1.33-0.22-0.513-0.33-1.063-0.33-1.65v0c0-0.567 0.11-1.103 0.33-1.61 0.22-0.507 0.52-0.947 0.9-1.32 0.387-0.373 0.83-0.67 1.33-0.89 0.507-0.22 1.053-0.33 1.64-0.33v0c0.567 0 1.103 0.11 1.61 0.33 0.507 0.22 0.947 0.517 1.32 0.89 0.373 0.373 0.67 0.813 0.89 1.32 0.22 0.507 0.33 1.043 0.33 1.61z" fill="#edbbba" fill-rule="nonzero" stroke="none" stroke-width="1" stroke-linecap="butt" stroke-linejoin="miter" stroke-miterlimit="10" stroke-dasharray="" stroke-dashoffset="0" font-family="none" font-weight="none" font-size="none" text-anchor="none" style="mix-blend-mode: normal" data-fill-palette-color="primary" opacity="1"></path></g></svg></g></svg></g></svg></g></svg></g></svg></g><defs></defs></svg><rect width="241.0338093850189" height="247.19999999999996" fill="none" stroke="none" visibility="hidden"></rect></g></svg></g></svg>